<!-- Generated by packages/design-tokens/scripts/generate.ts. Do not edit. Regenerate with `pnpm --filter @coldframe/design-tokens run generate`. Source: @carbon/icons 11.89.0 (Apache-2.0). -->
<svg xmlns="http://www.w3.org/2000/svg" viewBox="0 0 32 32" fill="currentColor"><path d="M 24.801 12.136 C 24.607 11.243 24.277 10.385 23.821 9.593 L 30 3.414 L 28.587 2 L 2 28.587 L 3.414 30 L 8.414 25 L 23.5 25 C 26.836 25.001 29.631 22.476 29.967 19.156 C 30.303 15.837 28.07 12.803 24.801 12.136 Z M 23.5 23 L 10.414 23 L 22.342 11.072 C 22.649 11.727 22.852 12.426 22.942 13.143 L 23.041 13.955 L 23.856 14.019 C 26.264 14.209 28.092 16.268 27.996 18.681 C 27.9 21.094 25.915 23.001 23.5 23 Z M 4.296 23.449 L 5.728 22.018 C 4.267 20.881 3.656 18.962 4.191 17.189 C 4.727 15.417 6.298 14.157 8.144 14.019 L 8.96 13.955 L 9.059 13.143 C 9.347 10.773 10.825 8.715 12.978 7.684 C 15.132 6.654 17.662 6.794 19.689 8.057 L 21.132 6.614 C 18.658 4.89 15.485 4.521 12.682 5.632 C 9.879 6.743 7.821 9.186 7.2 12.136 C 4.763 12.63 2.822 14.474 2.204 16.883 C 1.585 19.292 2.398 21.842 4.296 23.449 Z"/></svg>
